<svg width="24" height="24" viewBox="0 0 24 24" fill="none" xmlns="http://www.w3.org/2000/svg">
<path d="M0 11.52C0 6.0894 0 3.37413 1.68707 1.68707C3.37413 0 6.0894 0 11.52 0H12.48C17.9106 0 20.6259 0 22.313 1.68707C24 3.37413 24 6.0894 24 11.52V12.48C24 17.9106 24 20.6259 22.313 22.313C20.6259 24 17.9106 24 12.48 24H11.52C6.0894 24 3.37413 24 1.68707 22.313C0 20.6259 0 17.9106 0 12.48V11.52Z" fill="#343434"/>
<path d="M12.7701 17.2901C7.30012 17.2901 4.18017 13.5401 4.05017 7.30013H6.79017C6.88017 11.8801 8.90012 13.8201 10.5001 14.2201V7.30013H13.0802V11.2501C14.6602 11.0801 16.32 9.28013 16.88 7.30013H19.4601C19.0301 9.74013 17.2301 11.5401 15.9501 12.2801C17.2301 12.8801 19.2802 14.4501 20.0602 17.2901H17.2201C16.6101 15.3901 15.0902 13.9201 13.0802 13.7201V17.2901H12.7701Z" fill="white"/>
</svg>
