<svg width="30" height="31" viewBox="0 0 30 31" fill="none" xmlns="http://www.w3.org/2000/svg">
<g clip-path="url(#clip0_7_6)">
<path d="M0 15.233C0 8.44476 0 5.05067 2.10883 2.94184C4.21766 0.833008 7.61175 0.833008 14.4 0.833008H15.6C22.3883 0.833008 25.7823 0.833008 27.8912 2.94184C30 5.05067 30 8.44476 30 15.233V16.433C30 23.2213 30 26.6153 27.8912 28.7242C25.7823 30.833 22.3883 30.833 15.6 30.833H14.4C7.61175 30.833 4.21766 30.833 2.10883 28.7242C0 26.6153 0 23.2213 0 16.433V15.233Z" fill="black"/>
<path d="M15.9625 22.4456C9.125 22.4456 5.22506 17.7581 5.06256 9.95807H8.48756C8.60006 15.6831 11.125 18.1081 13.125 18.6081V9.95807H16.3501V14.8956C18.3251 14.6831 20.3999 12.4331 21.0999 9.95807H24.3249C23.7874 13.0081 21.5374 15.2581 19.9374 16.1831C21.5374 16.9331 24.1001 18.8956 25.0751 22.4456H21.5249C20.7624 20.0706 18.8626 18.2331 16.3501 17.9831V22.4456H15.9625Z" fill="white"/>
</g>
<defs>
<clipPath id="clip0_7_6">
<rect width="30" height="30" fill="white" transform="translate(0 0.833008)"/>
</clipPath>
</defs>
</svg>
