<svg width="18" height="19" viewBox="0 0 18 19" fill="none" xmlns="http://www.w3.org/2000/svg">
<g clip-path="url(#clip0_7_22)">
<path d="M9 18.1414C13.9706 18.1414 18 14.1119 18 9.14136C18 4.17079 13.9706 0.141357 9 0.141357C4.02944 0.141357 0 4.17079 0 9.14136C0 14.1119 4.02944 18.1414 9 18.1414Z" fill="black"/>
<path d="M7.50794 10.5572L7.30297 12.7357C7.30297 12.7357 7.21717 13.4032 7.88452 12.7357C8.55187 12.0682 9.19064 11.5534 9.19064 11.5534" fill="white"/>
<path d="M6.11144 9.9047L3.91499 9.18905C3.91499 9.18905 3.65249 9.08255 3.73701 8.84105C3.75441 8.79125 3.78951 8.74888 3.89451 8.67605C4.38119 8.33683 12.9025 5.27405 12.9025 5.27405C12.9025 5.27405 13.1431 5.19298 13.285 5.2469C13.3201 5.25777 13.3517 5.27776 13.3765 5.30484C13.4013 5.33192 13.4185 5.36512 13.4263 5.40103C13.4417 5.46445 13.4481 5.5297 13.4454 5.5949C13.4447 5.6513 13.4379 5.70358 13.4327 5.78555C13.3808 6.62293 11.8277 12.8725 11.8277 12.8725C11.8277 12.8725 11.7348 13.2382 11.4019 13.2508C11.3201 13.2534 11.2385 13.2395 11.1622 13.21C11.0858 13.1805 11.0162 13.1359 10.9575 13.0789C10.3042 12.5169 8.04607 10.9993 7.54709 10.6656C7.53584 10.6579 7.52636 10.6479 7.51929 10.6363C7.51223 10.6246 7.50774 10.6116 7.50614 10.5981C7.49917 10.5629 7.53742 10.5193 7.53742 10.5193C7.53742 10.5193 11.4694 7.02433 11.574 6.65743C11.5821 6.629 11.5515 6.61498 11.5104 6.62743C11.2492 6.7235 6.72209 9.58243 6.22244 9.89795C6.18647 9.90883 6.14846 9.91114 6.11144 9.9047Z" fill="white"/>
</g>
<defs>
<clipPath id="clip0_7_22">
<rect width="18" height="18" fill="white" transform="translate(0 0.141357)"/>
</clipPath>
</defs>
</svg>
