<svg width="30" height="31" viewBox="0 0 30 31" fill="none" xmlns="http://www.w3.org/2000/svg">
<g clip-path="url(#clip0_7_9)">
<path d="M0 15.233C0 8.44476 0 5.05067 2.10883 2.94184C4.21766 0.833008 7.61175 0.833008 14.4 0.833008H15.6C22.3883 0.833008 25.7823 0.833008 27.8912 2.94184C30 5.05067 30 8.44476 30 15.233V16.433C30 23.2213 30 26.6153 27.8912 28.7242C25.7823 30.833 22.3883 30.833 15.6 30.833H14.4C7.61175 30.833 4.21766 30.833 2.10883 28.7242C0 26.6153 0 23.2213 0 16.433V15.233Z" fill="black"/>
<circle cx="15" cy="15.833" r="6" stroke="white" stroke-width="4"/>
</g>
<defs>
<clipPath id="clip0_7_9">
<rect width="30" height="30" fill="white" transform="translate(0 0.833008)"/>
</clipPath>
</defs>
</svg>
