<svg width="24" height="24" viewBox="0 0 24 24" fill="none" xmlns="http://www.w3.org/2000/svg">
<path d="M0.51176 11.8967C0.511037 13.9196 1.04204 15.8947 2.05173 17.6358L0.415039 23.5845L6.5304 21.9883C8.2153 22.9023 10.1123 23.3848 12.043 23.3854H12.0479C18.4058 23.3854 23.5808 18.2353 23.5836 11.9057C23.5848 8.83821 22.3859 5.95426 20.2078 3.78415C18.03 1.61435 15.1337 0.418753 12.0474 0.417313C5.68924 0.417313 0.514228 5.56673 0.511473 11.8967L0.51176 11.8967ZM12.0478 23.3853H12.0479H12.0478C12.0477 23.3853 12.0475 23.3853 12.0478 23.3853Z" fill="#343434"/>
<path d="M0.100373 11.8935C0.0996495 13.9892 0.649735 16.0352 1.69538 17.8384L0 24L6.33477 22.3466C8.0802 23.2941 10.0452 23.7934 12.0451 23.7942H12.0502C18.6357 23.7942 23.997 18.459 23.9998 11.9027C24.0009 8.72505 22.7589 5.73734 20.5029 3.48974C18.2467 1.24214 15.2466 0.00364509 12.0502 0.00227356C5.46325 0.00227356 0.102927 5.33651 0.100172 11.8931L0.100373 11.8935ZM3.87258 17.5277L3.63611 17.1538C2.64176 15.5801 2.11695 13.7614 2.11768 11.894C2.11985 6.44457 6.5752 2.01075 12.0537 2.01075C14.7067 2.01178 17.2001 3.04135 19.0756 4.90934C20.9509 6.77747 21.9828 9.26087 21.9821 11.9018C21.9797 17.3515 17.5242 21.7857 12.0499 21.7857H12.046C10.2635 21.7847 8.51542 21.3084 6.99088 20.4078L6.62804 20.1937L2.86872 21.1749L3.87258 17.5277ZM12.0502 23.7942H12.0503H12.0502C12.05 23.7942 12.0499 23.7942 12.0502 23.7942Z" fill="#343434"/>
<path fill-rule="evenodd" clip-rule="evenodd" d="M9.06385 6.92155C8.84015 6.42656 8.60477 6.41665 8.392 6.40794C8.21788 6.40057 8.01872 6.40105 7.8198 6.40105C7.62064 6.40105 7.29717 6.47544 7.02364 6.77287C6.74987 7.07032 5.97852 7.78932 5.97852 9.25161C5.97852 10.714 7.04858 12.1271 7.19766 12.3256C7.347 12.5237 9.26329 15.6206 12.2979 16.8119C14.8202 17.802 15.3335 17.605 15.8809 17.5554C16.4283 17.5059 17.6475 16.8367 17.8962 16.1426C18.1451 15.4486 18.1451 14.8538 18.0704 14.7295C17.9958 14.6057 17.7967 14.5313 17.4981 14.3828C17.1994 14.2341 15.7315 13.515 15.4579 13.4158C15.1841 13.3167 14.9851 13.2672 14.7859 13.5648C14.5869 13.862 14.015 14.5313 13.8408 14.7296C13.6666 14.9282 13.4924 14.953 13.1938 14.8043C12.8951 14.6552 11.9335 14.3416 10.7927 13.3292C9.90506 12.5414 9.30586 11.5685 9.1316 11.2709C8.95747 10.9737 9.11301 10.8127 9.26271 10.6645C9.39687 10.5313 9.5614 10.3175 9.71074 10.144C9.85971 9.97043 9.90941 9.84657 10.0089 9.6483C10.1086 9.44993 10.0588 9.27634 9.98415 9.12767C9.90941 8.97901 9.32918 7.50919 9.06367 6.92146" fill="white"/>
</svg>
