<svg width="18" height="19" viewBox="0 0 18 19" fill="none" xmlns="http://www.w3.org/2000/svg">
<path d="M4.97118 15.2849L5.24331 15.4455C6.38679 16.121 7.69777 16.4782 9.03467 16.4789H9.03759C13.1433 16.4789 16.4849 13.1533 16.4865 9.06598C16.4871 7.08508 15.7131 5.22268 14.3067 3.82141C12.9002 2.42039 11.0302 1.64828 9.04025 1.64746C4.93139 1.64746 1.5898 4.97257 1.58825 9.05991C1.58771 10.4605 1.98131 11.8247 2.72708 13.0048L2.90434 13.2853L2.15165 16.0207L4.97118 15.2849ZM0 18.1396L1.27143 13.5182C0.487198 12.1656 0.0746338 10.6313 0.0752797 9.05949C0.0771914 4.14203 4.09733 0.141357 9.03777 0.141357C11.4351 0.142386 13.6853 1.07115 15.3774 2.75695C17.0693 4.44273 18.0008 6.68357 18 9.06669C17.9979 13.9839 13.9769 17.9853 9.03777 17.9853C9.03741 17.9853 9.03795 17.9853 9.03777 17.9853H9.03394C7.53404 17.9848 6.06022 17.6103 4.75123 16.8996L0 18.1396Z" fill="white"/>
<path d="M0.38382 9.06386C0.383278 10.5811 0.781531 12.0624 1.53879 13.3682L0.311279 17.8297L4.8978 16.6326C6.16148 17.3181 7.58424 17.6799 9.03222 17.6804H9.03596C13.8043 17.6804 17.6856 13.8178 17.6877 9.07062C17.6886 6.77002 16.7894 4.60705 15.1558 2.97947C13.5225 1.35212 11.3503 0.455426 9.03557 0.454346C4.26693 0.454346 0.385671 4.31641 0.383605 9.06388L0.38382 9.06386ZM9.03583 17.6804H9.03592H9.03583C9.03574 17.6804 9.03565 17.6804 9.03583 17.6804Z" fill="black"/>
<path d="M0.0752797 9.06148C0.0747371 10.6332 0.487301 12.1677 1.27154 13.5202L0 18.1414L4.75108 16.9013C6.06015 17.6119 7.53388 17.9864 9.03379 17.987H9.03762C13.9768 17.987 17.9978 13.9856 17.9998 9.0684C18.0007 6.68515 17.0692 4.44437 15.3772 2.75867C13.685 1.07297 11.435 0.144095 9.03762 0.143066C4.09744 0.143066 0.0771956 4.14374 0.0751289 9.0612L0.0752797 9.06148ZM2.90444 13.2871L2.72709 13.0067C1.98132 11.8265 1.58772 10.4624 1.58826 9.06187C1.58989 4.97479 4.9314 1.64942 9.04025 1.64942C11.03 1.65019 12.9001 2.42237 14.3067 3.82337C15.7132 5.22447 16.4871 7.08702 16.4866 9.06768C16.4848 13.155 13.1432 16.4806 9.03743 16.4806H9.03452C7.69765 16.4799 6.38656 16.1226 5.24316 15.4472L4.97103 15.2867L2.15154 16.0225L2.90444 13.2871ZM9.03762 17.987H9.03771H9.03762C9.03753 17.987 9.03743 17.987 9.03762 17.987Z" fill="black"/>
<path fill-rule="evenodd" clip-rule="evenodd" d="M6.79789 5.33264C6.63011 4.9614 6.45358 4.95397 6.294 4.94743C6.16341 4.9419 6.01404 4.94227 5.86485 4.94227C5.71548 4.94227 5.47288 4.99806 5.26773 5.22113C5.0624 5.44421 4.48389 5.98346 4.48389 7.08018C4.48389 8.17701 5.28644 9.2368 5.39825 9.38567C5.51025 9.53427 6.94747 11.8569 9.22344 12.7504C11.1151 13.4929 11.5001 13.3453 11.9107 13.308C12.3212 13.2709 13.2356 12.769 13.4221 12.2484C13.6088 11.728 13.6088 11.2818 13.5528 11.1886C13.4969 11.0957 13.3475 11.0399 13.1236 10.9285C12.8996 10.817 11.7986 10.2777 11.5934 10.2033C11.3881 10.129 11.2388 10.0919 11.0894 10.3151C10.9402 10.538 10.5113 11.0399 10.3806 11.1886C10.25 11.3376 10.1193 11.3562 9.89537 11.2447C9.67136 11.1328 8.95012 10.8977 8.09453 10.1384C7.4288 9.54751 6.97939 8.81784 6.8487 8.59465C6.7181 8.37174 6.83476 8.251 6.94704 8.13985C7.04765 8.03997 7.17105 7.87958 7.28305 7.74948C7.39479 7.6193 7.43206 7.5264 7.5067 7.3777C7.58143 7.22892 7.54407 7.09873 7.48811 6.98723C7.43206 6.87573 6.99688 5.77337 6.79776 5.33257" fill="white"/>
</svg>
